<svg height="512" viewBox="0 0 60 60" width="512" xmlns="http://www.w3.org/2000/svg"><g id="Page-1" fill="none" fill-rule="evenodd"><g id="008---Swinging-Bin" fill-rule="nonzero"><rect id="Rectangle-path" fill="#607d8b" height="4" rx="2" width="14" x="1" y="55"/><path id="Shape" d="m8 1c1.1045695 0 2 .8954305 2 2v52h-4v-52c0-1.1045695.8954305-2 2-2z" fill="#7f8e94"/><rect id="Rectangle-path" fill="#607d8b" height="4" rx="2" width="14" x="45" y="55"/><path id="Shape" d="m57 55h-3c1.1045695 0 2 .8954305 2 2s-.8954305 2-2 2h3c1.1045695 0 2-.8954305 2-2s-.8954305-2-2-2z" fill="#37474f"/><path id="Shape" d="m52 1c1.1045695 0 2 .8954305 2 2v52h-4v-52c0-1.1045695.8954305-2 2-2z" fill="#7f8e94"/><path id="Shape" d="m45 12v3h-30v-3c0-.5522847.4477153-1 1-1h28c.5522847 0 1 .4477153 1 1z" fill="#3f51b5"/><path id="Shape" d="m44 11h-3c.5522847 0 1 .4477153 1 1v3h3v-3c0-.5522847-.4477153-1-1-1z" fill="#283593"/><path id="Shape" d="m45 15v30c0 3.3137085-2.6862915 6-6 6h-18c-3.3137085 0-6-2.6862915-6-6v-30z" fill="#02a9f4"/><path id="Shape" d="m42 15v30c0 3.3137085-2.6862915 6-6 6h3c3.3137085 0 6-2.6862915 6-6v-30z" fill="#0377bc"/><rect id="Rectangle-path" fill="#02a9f4" height="4" rx="2" width="30" x="15" y="3"/><path id="Shape" d="m43 3h-3c1.1045695 0 2 .8954305 2 2s-.8954305 2-2 2h3c1.1045695 0 2-.8954305 2-2s-.8954305-2-2-2z" fill="#0377bc"/><g fill="#607d8b"><path id="Rectangle-path" d="m10 19h5v4h-5z"/><path id="Shape" d="m3 19h3v4h-3c-1.1045695 0-2-.8954305-2-2s.8954305-2 2-2z"/><path id="Rectangle-path" d="m45 19h5v4h-5z" transform="matrix(-1 0 0 -1 95 42)"/><path id="Shape" d="m56 19h3v4h-3c-1.1045695 0-2-.8954305-2-2s.8954305-2 2-2z" transform="matrix(-1 0 0 -1 113 42)"/></g><path id="Shape" d="m57 19h-3c1.1045695 0 2 .8954305 2 2s-.8954305 2-2 2h3c1.1045695 0 2-.8954305 2-2s-.8954305-2-2-2z" fill="#37474f"/><path id="Shape" d="m57 24c1.6568542 0 3-1.3431458 3-3s-1.3431458-3-3-3h-2v-15c0-1.65685425-1.3431458-3-3-3s-3 1.34314575-3 3v1h-3.184c-.4222546-1.19435087-1.5492146-1.99474861-2.816-2h-26c-1.6568542 0-3 1.34314575-3 3s1.3431458 3 3 3h26c1.2667854-.00525139 2.3937454-.80564913 2.816-2h3.184v12h-3v-6c0-1.1045695-.8954305-2-2-2h-28c-1.1045695 0-2 .8954305-2 2v6h-3v-15c0-1.65685425-1.34314575-3-3-3s-3 1.34314575-3 3v15h-2c-1.65685425 0-3 1.3431458-3 3s1.34314575 3 3 3h2v30h-2c-1.65685425 0-3 1.3431458-3 3s1.34314575 3 3 3h10c1.6568542 0 3-1.3431458 3-3s-1.3431458-3-3-3h-2v-30h3v21c.0044086 3.8641657 3.1358343 6.9955914 7 7h18c3.8641657-.0044086 6.9955914-3.1358343 7-7v-21h3v30h-2c-1.6568542 0-3 1.3431458-3 3s1.3431458 3 3 3h10c1.6568542 0 3-1.3431458 3-3s-1.3431458-3-3-3h-2v-30zm-14-18h-26c-.5522847 0-1-.44771525-1-1s.4477153-1 1-1h26c.5522847 0 1 .44771525 1 1s-.4477153 1-1 1zm14 14c.5522847 0 1 .4477153 1 1s-.4477153 1-1 1h-2v-2zm-13-8v2h-28v-2zm-41 10c-.55228475 0-1-.4477153-1-1s.44771525-1 1-1h2v2zm11 35c0 .5522847-.4477153 1-1 1h-10c-.55228475 0-1-.4477153-1-1s.44771525-1 1-1h10c.5522847 0 1 .4477153 1 1zm-7-3v-51c0-.55228475.44771525-1 1-1s1 .44771525 1 1v51zm4-32v-2h3v2zm33 23c-.0033061 2.7600532-2.2399468 4.9966939-5 5h-18c-2.7600532-.0033061-4.9966939-2.2399468-5-5v-29h3v28c0 .5522847.4477153 1 1 1s1-.4477153 1-1v-28h3v28c0 .5522847.4477153 1 1 1s1-.4477153 1-1v-28h3v28c0 .5522847.4477153 1 1 1s1-.4477153 1-1v-28h3v28c0 .5522847.4477153 1 1 1s1-.4477153 1-1v-28h3v28c0 .5522847.4477153 1 1 1s1-.4477153 1-1v-28h3zm2-23v-2h3v2zm12 35c0 .5522847-.4477153 1-1 1h-10c-.5522847 0-1-.4477153-1-1s.4477153-1 1-1h10c.5522847 0 1 .4477153 1 1zm-7-3v-51c0-.55228475.4477153-1 1-1s1 .44771525 1 1v51z" fill="#000"/></g></g></svg>